<svg width="202" height="99" viewBox="0 0 202 99" fill="none" xmlns="http://www.w3.org/2000/svg">
<path d="M31.7618 24.4615L32.4789 20.4277H15.0813V20.4338C13.2559 20.4338 11.5202 21.8924 11.1617 23.7097L4.44709 61.789H4.45543C4.11317 63.6307 5.3192 65.1301 7.16897 65.1382H26.1557L26.8646 61.1126H10.5507L13.5658 44.0165H26.8239L27.5165 40.0562H14.2584L17.0127 24.4594L31.7618 24.4615Z" fill="#F9F9F9"/>
<path d="M40.3343 65.8001C32.6663 65.8001 28.2252 58.9144 30.2135 47.6038C32.2426 36.0977 39.0712 29.4728 46.8696 29.4728C51.1559 29.4728 53.2583 30.8418 54.1954 31.8115L52.2478 35.1281C51.3433 34.3458 49.9417 33.4412 47.3423 33.4412C40.9699 33.4412 37.4822 39.2187 36.0399 47.4083C34.5568 55.7934 36.5288 61.579 42.1841 61.579C44.588 61.579 46.3562 60.7968 47.8149 59.8922L48.6135 63.4614C47.0326 64.7 44.2376 65.8001 40.3343 65.8001Z" fill="#F9F9F9"/>
<path d="M70.2242 33.1153C63.534 33.1153 60.9101 40.5877 59.6552 47.669C58.4166 54.7503 58.5959 61.8398 65.1556 61.8398C71.854 61.8398 74.3475 54.6851 75.578 47.669C76.8247 40.6529 76.9144 33.1153 70.2242 33.1153ZM64.463 65.8001C54.9045 65.8001 52.1339 57.9365 53.9429 47.669C55.7845 37.206 61.3746 29.4728 70.8028 29.4728C80.4183 29.4728 83.1482 37.206 81.2984 47.669C79.4894 57.9365 73.9482 65.8001 64.463 65.8001Z" fill="#F9F9F9"/>
<path d="M134.339 45.2652C125.31 46.3652 119.712 48.2476 118.465 55.337C117.569 60.4056 120.315 62.4835 125.522 62.4835C127.722 62.4835 129.947 62.1003 131.511 61.3182L134.339 45.2652ZM124.479 65.8001C115.385 65.8001 111.856 61.8398 112.981 55.4674C114.619 46.1697 123.803 43.4479 134.86 42.3397L135.235 40.1966C136.189 34.8021 133.214 33.2457 128.724 33.2457C125.351 33.2457 122.01 34.4761 119.891 35.454L119.117 32.0722C121.325 30.964 125.489 29.4728 130.297 29.4728C136.8 29.4728 142.031 32.2678 140.516 40.8403L136.547 63.331C133.622 64.8304 129.352 65.8001 124.479 65.8001Z" fill="#F9F9F9"/>
<path d="M160.668 65.1482L165.101 40.001C165.679 36.7497 164.938 33.1805 158.964 33.1805C155.713 33.1805 154.067 33.6287 152.119 34.4109L146.692 65.1482H140.98L146.831 31.9419C150.221 30.4506 154.483 29.4728 160.065 29.4728C169.819 29.4728 171.726 34.8673 170.845 39.8707L166.388 65.1482H160.668Z" fill="#F9F9F9"/>
<path d="M195.528 73.1993H2.44244L2.62162 72.0503H195.691L195.528 73.1993Z" fill="#F9F9F9"/>
<path d="M106.299 47.2129C104.734 56.0543 100.815 62.1007 93.603 62.1007C91.7777 62.1007 90.0012 61.905 88.8115 61.2532L93.546 34.4111C95.3306 33.5066 96.9033 33.0502 99.5027 33.0502C106.128 33.0502 107.652 39.553 106.299 47.2129ZM101.524 29.6685C98.0848 29.6685 96.0069 30.3774 94.0919 31.2901L97.107 14.2102L90.808 17.8528L82.7896 63.3312C84.6312 64.7002 88.07 65.8002 92.8207 65.8002C103.219 65.8002 110.072 58.2626 112.052 47.0173C113.918 36.4238 109.583 29.6685 101.524 29.6685Z" fill="#F9F9F9"/>
<path d="M201.135 30.1248H195.161L179.817 46.3653H179.687L183.598 24.2332C187.485 2.31294 163.829 -2.31561 139.13 1.46543C122.344 4.04044 107.513 10.7306 107.513 10.7306C107.513 10.7306 126.875 3.95896 143.914 2.98923C165.427 1.76694 182.286 5.02644 177.365 27.8187L170.78 65.1564H176.37L179.557 47.0824H179.687L189.889 65.1564H196.392L184.992 46.4957L201.135 30.1248Z" fill="#F9F9F9"/>
<path d="M5.6042 84.6566L3.15141 98.5584H1.10606L3.55885 84.6566H0.519348L0.763805 83.2794H8.88817L8.64371 84.6566H5.6042Z" fill="#F9F9F9"/>
<path d="M15.1627 98.5583L16.6539 90.0754C16.874 88.8368 16.5398 87.7205 14.633 87.7205C13.7448 87.7205 13.0033 87.8754 12.1966 88.3153L10.3875 98.5583H8.43182L11.5121 81.1281H13.4596L12.3921 87.2152C13.4759 86.702 14.3886 86.4819 15.2687 86.4819C18.3163 86.4819 18.9193 88.3153 18.6259 90.0021L17.1184 98.5583H15.1627Z" fill="#F9F9F9"/>
<path d="M25.748 87.6309C24.0123 87.6309 22.4804 89.0325 21.9507 92.2757L27.8341 91.4038C28.3067 88.6902 27.4511 87.6309 25.748 87.6309ZM21.8366 93.3187C21.5758 96.0241 22.6107 97.3606 24.762 97.3606C26.1147 97.3606 27.1496 97.0265 27.8341 96.6679L28.1193 97.9554C27.3126 98.3953 25.9762 98.7785 24.3546 98.7785C21.2254 98.7785 19.3757 96.7983 20.1253 92.5365C20.8506 88.4702 23.2137 86.3678 26.0332 86.3678C28.9016 86.3678 30.3032 88.2339 29.5535 92.2268L21.8366 93.3187Z" fill="#F9F9F9"/>
<path d="M44.3517 84.2817C43.5287 84.2817 42.9012 84.4366 42.5671 84.5667L41.4426 90.9635L42.0945 91.0286C45.2644 91.3467 46.6904 89.8714 47.0897 87.655C47.4809 85.4385 46.6822 84.2817 44.3517 84.2817ZM41.8989 92.2753L41.2226 92.2103L40.098 98.5582H38.1016L40.6847 83.8985C41.6218 83.4095 43.0316 83.051 44.6532 83.051C48.255 83.051 49.5343 84.9904 49.0617 87.6714C48.5809 90.3849 46.3318 92.7235 41.8989 92.2753Z" fill="#F9F9F9"/>
<path d="M56.257 91.7623C53.1768 92.1455 51.2618 92.7809 50.8381 95.2011C50.5284 96.9286 51.4737 97.6457 53.2501 97.6457C53.9998 97.6457 54.7576 97.5073 55.2955 97.2466L56.257 91.7623ZM52.8916 98.7785C49.7869 98.7785 48.5809 97.4175 48.9638 95.2418C49.5261 92.0719 52.6634 91.143 56.4363 90.76L56.5667 90.0266C56.8926 88.1849 55.874 87.6553 54.3421 87.6553C53.1931 87.6553 52.0522 88.071 51.327 88.405L51.0581 87.2479C51.8159 86.873 53.2419 86.3678 54.8799 86.3678C57.1045 86.3678 58.8891 87.3212 58.3676 90.2548L57.0148 97.931C56.0125 98.4525 54.5621 98.7785 52.8916 98.7785Z" fill="#F9F9F9"/>
<path d="M66.2963 98.5584L67.812 89.9614C68.0074 88.8532 67.7553 87.6308 65.7096 87.6308C64.6014 87.6308 64.0391 87.7858 63.3709 88.0548L61.5211 98.5586H59.5654L61.57 87.2155C62.7272 86.7022 64.1776 86.368 66.0926 86.368C69.4255 86.368 70.0774 88.2097 69.7759 89.9209L68.2521 98.5586L66.2963 98.5584Z" fill="#F9F9F9"/>
<path d="M85.389 86.9626C85.2261 85.7648 85.2749 85.121 85.2749 85.121H85.2258C85.2258 85.121 85.0303 85.7648 84.4354 86.9626L81.5914 92.7646H86.1466L85.389 86.9626ZM86.8965 98.5584L86.2609 93.9788H81.0212L78.7314 98.5584H76.8654L84.7289 83.2794H86.5543L89.0071 98.5584H86.8965Z" fill="#F9F9F9"/>
<path d="M95.2328 87.8019L93.3423 98.5583H91.3784L93.2771 87.8019H91.8918L92.1118 86.5877H93.489L93.7905 84.9009C94.2061 82.5459 95.8929 81.014 98.4924 81.128L98.2805 82.3667C97.0908 82.4317 96.0803 82.9941 95.7788 84.6809L95.4447 86.5877H97.5308L97.3189 87.8019H95.2328Z" fill="#F9F9F9"/>
<path d="M104.164 87.8753C103.235 87.582 102.11 87.6713 101.401 88.0952L99.5517 98.5583H97.5959L99.5924 87.2315C100.88 86.6366 102.062 86.3188 104.889 86.384L104.164 87.8753Z" fill="#F9F9F9"/>
<path d="M108.377 84.2817C107.733 84.2817 107.301 83.7926 107.407 83.2142C107.513 82.6112 108.108 82.1222 108.752 82.1222C109.379 82.1222 109.803 82.6113 109.697 83.2142C109.591 83.7925 108.996 84.2817 108.377 84.2817ZM104.881 98.5584L106.992 86.5878H108.947L106.837 98.5584H104.881Z" fill="#F9F9F9"/>
<path d="M113.902 98.7785C111.278 98.7785 109.762 96.4234 110.447 92.5609C111.131 88.625 113.47 86.3678 116.134 86.3678C117.601 86.3678 118.318 86.832 118.636 87.1664L117.968 88.2909C117.666 88.0301 117.186 87.7203 116.297 87.7203C114.114 87.7203 112.924 89.7004 112.427 92.4955C111.93 95.3557 112.598 97.3358 114.529 97.3358C115.352 97.3358 115.955 97.0668 116.46 96.7652L116.729 97.9794C116.183 98.3951 115.23 98.7785 113.902 98.7785Z" fill="#F9F9F9"/>
<path d="M126.011 91.7623C122.931 92.1455 121.016 92.7809 120.592 95.2011C120.282 96.9286 121.219 97.6457 122.996 97.6457C123.754 97.6457 124.52 97.5073 125.049 97.2466L126.011 91.7623ZM122.645 98.7785C119.541 98.7785 118.326 97.4175 118.718 95.2418C119.272 92.0719 122.417 91.143 126.19 90.76L126.32 90.0266C126.646 88.1849 125.628 87.6553 124.096 87.6553C122.939 87.6553 121.798 88.071 121.081 88.405L120.812 87.2479C121.57 86.873 122.988 86.3678 124.634 86.3678C126.858 86.3678 128.643 87.3212 128.129 90.2548L126.769 97.931C125.766 98.4525 124.316 98.7785 122.645 98.7785Z" fill="#F9F9F9"/>
<path d="M136.058 98.5584L137.566 89.9614C137.761 88.8532 137.509 87.6308 135.472 87.6308C134.355 87.6308 133.793 87.7858 133.125 88.0548L131.275 98.5586H129.327L131.324 87.2155C132.481 86.7022 133.94 86.368 135.846 86.368C139.179 86.368 139.831 88.2097 139.53 89.9209L138.006 98.5586L136.058 98.5584Z" fill="#F9F9F9"/>
<path d="M154.385 84.2328C153.578 84.2328 152.959 84.347 152.307 84.5669L151.345 90.0021H152.34C155.493 90.0021 156.74 89.0324 157.082 87.036C157.424 85.1617 156.471 84.2328 154.385 84.2328ZM152.193 91.0289H151.166L150.099 97.116C150.628 97.3602 151.248 97.4666 152.185 97.4666C154.181 97.4666 155.884 96.6681 156.275 94.4434C156.683 92.0721 155.493 91.0289 152.193 91.0289ZM152.038 98.7786C150.311 98.7786 148.901 98.4688 148.021 97.9311L150.49 83.8989C151.419 83.4099 152.943 83.0515 154.613 83.0515C157.97 83.0515 159.478 84.6568 159.087 86.8732C158.712 89.0571 156.911 90.1653 155.493 90.4343L155.486 90.4757C156.855 90.7447 158.753 92.0972 158.346 94.4278C157.792 97.4918 155.192 98.7786 152.038 98.7786Z" fill="#F9F9F9"/>
<path d="M167.26 91.7623C164.18 92.1455 162.265 92.7809 161.833 95.2011C161.531 96.9286 162.469 97.6457 164.245 97.6457C165.003 97.6457 165.753 97.5073 166.298 97.2466L167.26 91.7623ZM163.895 98.7785C160.782 98.7785 159.576 97.4175 159.959 95.2418C160.529 92.0719 163.658 91.143 167.439 90.76L167.562 90.0266C167.887 88.1849 166.877 87.6553 165.345 87.6553C164.188 87.6553 163.047 88.071 162.322 88.405L162.061 87.2479C162.819 86.873 164.237 86.3678 165.875 86.3678C168.099 86.3678 169.892 87.3212 169.371 90.2548L168.018 97.931C167.016 98.4525 165.557 98.7785 163.895 98.7785Z" fill="#F9F9F9"/>
<path d="M177.544 98.5584L179.059 89.9614C179.247 88.8532 179.003 87.6308 176.957 87.6308C175.841 87.6308 175.287 87.7858 174.61 88.0548L172.769 98.5586H170.813L172.817 87.2155C173.975 86.7022 175.425 86.368 177.34 86.368C180.665 86.368 181.317 88.2097 181.023 89.9209L179.491 98.5586L177.544 98.5584Z" fill="#F9F9F9"/>
<path d="M188.797 98.5583L185.318 92.3897H185.261L184.177 98.5583H182.27L185.342 81.1281H187.249L185.31 92.1452H185.351L190.607 86.5877H192.636L187.127 92.186L191.022 98.5583H188.797Z" fill="#F9F9F9"/>
</svg>
