<svg width="218" height="114" viewBox="0 0 218 114" fill="none" xmlns="http://www.w3.org/2000/svg">
<path d="M43.7316 14.959C42.5912 14.959 41.4706 14.6387 40.3696 13.9982C39.3079 13.3149 38.4232 12.3968 37.7154 11.2438C37.0469 10.0908 36.7127 8.85237 36.7127 7.52855C36.7127 5.47876 37.4205 3.77058 38.8361 2.40405C40.2909 1.03752 42.0211 0.354248 44.0265 0.354248C45.9139 0.354248 47.4278 0.973462 48.5681 2.21188C49.7477 3.45029 50.3375 5.0944 50.3375 7.14419C50.3375 9.4075 49.7084 11.2865 48.4501 12.7811C47.1918 14.233 45.619 14.959 43.7316 14.959ZM37.3025 17.3931H49.6298V51.3427H38.2462L37.3025 17.3931Z" fill="#F9F9F9"/>
<path d="M75.6547 15.0229L75.7727 51.4066L64.0942 51.9831L63.9763 15.3432L51.708 15.6635L50.8823 2.85229L87.9229 1.89148L88.8667 14.7026L75.6547 15.0229Z" fill="#F9F9F9"/>
<path d="M122.38 37.955V50.7662L91.2379 51.5348L89.7043 2.85238L120.847 1.76343L121.673 14.5746L101.737 14.8308L101.973 19.8912L118.547 19.5069L119.136 32.3181L102.68 32.7024L102.975 38.7877L122.38 37.955Z" fill="#F9F9F9"/>
<path d="M161.959 51.663L160.72 22.9019L155.058 51.663H143.262L136.715 24.7596L136.42 50.9584L124.624 51.0225V2.46814L133.117 3.04463L142.141 3.36492L148.747 29.1153L153.23 2.98056H164.672H171.691L173.756 51.2146L161.959 51.663Z" fill="#F9F9F9"/>
<path d="M207.513 37.955V50.7662L176.37 51.5348L174.837 2.85238L205.979 1.76343L206.805 14.5746L186.869 14.8308L187.105 19.8912L203.679 19.5069L204.269 32.3181L187.813 32.7024L188.107 38.7877L207.513 37.955Z" fill="#F9F9F9"/>
<path d="M44.9339 61.0664L42.8148 61.1968C42.7786 61.0157 42.7007 60.8527 42.5812 60.7078C42.4616 60.5593 42.304 60.4416 42.1084 60.3546C41.9164 60.2641 41.6864 60.2188 41.4184 60.2188C41.0598 60.2188 40.7573 60.2949 40.511 60.447C40.2646 60.5955 40.1415 60.7948 40.1415 61.0447C40.1415 61.2439 40.2212 61.4124 40.3806 61.55C40.5399 61.6877 40.8134 61.7982 41.201 61.8815L42.7116 62.1857C43.523 62.3524 44.1279 62.6204 44.5264 62.9899C44.9248 63.3594 45.1241 63.8448 45.1241 64.4461C45.1241 64.9931 44.9629 65.473 44.6405 65.886C44.3217 66.2989 43.8834 66.6213 43.3255 66.8532C42.7713 67.0814 42.132 67.1955 41.4075 67.1955C40.3027 67.1955 39.4224 66.9655 38.7668 66.5054C38.1148 66.0418 37.7326 65.4115 37.6203 64.6145L39.897 64.495C39.9658 64.8319 40.1324 65.0891 40.3969 65.2666C40.6613 65.4404 41 65.5274 41.4129 65.5274C41.8186 65.5274 42.1447 65.4495 42.391 65.2937C42.6409 65.1344 42.7677 64.9297 42.7713 64.6797C42.7677 64.4696 42.679 64.2976 42.5051 64.1636C42.3312 64.0259 42.0632 63.9209 41.7009 63.8484L40.2556 63.5604C39.4406 63.3974 38.8338 63.1149 38.4354 62.7128C38.0405 62.3107 37.8431 61.7982 37.8431 61.1751C37.8431 60.639 37.988 60.1771 38.2778 59.7896C38.5712 59.402 38.9823 59.1031 39.5112 58.893C40.0437 58.6829 40.6667 58.5779 41.3803 58.5779C42.4344 58.5779 43.264 58.8006 43.8689 59.2462C44.4775 59.6917 44.8325 60.2985 44.9339 61.0664ZM50.3851 67.1955C49.5266 67.1955 48.7876 67.0216 48.1682 66.6739C47.5524 66.3225 47.0779 65.8262 46.7446 65.1851C46.4113 64.5403 46.2447 63.7778 46.2447 62.8975C46.2447 62.039 46.4113 61.2856 46.7446 60.6372C47.0779 59.9888 47.547 59.4835 48.1519 59.1212C48.7605 58.759 49.4741 58.5779 50.2927 58.5779C50.8433 58.5779 51.3559 58.6666 51.8304 58.8441C52.3086 59.018 52.7251 59.2806 53.0801 59.632C53.4387 59.9833 53.7177 60.4253 53.9169 60.9578C54.1161 61.4866 54.2157 62.1061 54.2157 62.816V63.4518H47.1684V62.0173H52.0369C52.0369 61.684 51.9644 61.3888 51.8195 61.1316C51.6746 60.8745 51.4736 60.6734 51.2164 60.5285C50.9628 60.38 50.6676 60.3057 50.3307 60.3057C49.9794 60.3057 49.6679 60.3872 49.3962 60.5502C49.1281 60.7096 48.918 60.9252 48.7659 61.1968C48.6137 61.4649 48.5359 61.7637 48.5322 62.0934V63.4572C48.5322 63.8701 48.6083 64.2269 48.7605 64.5276C48.9162 64.8283 49.1354 65.0601 49.4179 65.2231C49.7005 65.3861 50.0355 65.4676 50.4231 65.4676C50.6803 65.4676 50.9158 65.4314 51.1295 65.3589C51.3432 65.2865 51.5261 65.1778 51.6783 65.0329C51.8304 64.888 51.9463 64.7105 52.026 64.5004L54.1668 64.6417C54.0582 65.1561 53.8354 65.6053 53.4985 65.9892C53.1652 66.3696 52.7342 66.6666 52.2053 66.8803C51.6801 67.0904 51.0733 67.1955 50.3851 67.1955ZM55.7263 67.0325V58.6865H57.9703V60.1427H58.0572C58.2094 59.6247 58.4648 59.2335 58.8234 58.9691C59.182 58.701 59.5949 58.567 60.0622 58.567C60.1781 58.567 60.3031 58.5742 60.4371 58.5887C60.5712 58.6032 60.6889 58.6232 60.7903 58.6485V60.7024C60.6817 60.6698 60.5313 60.6408 60.3393 60.6155C60.1474 60.5901 59.9717 60.5774 59.8123 60.5774C59.4718 60.5774 59.1675 60.6517 58.8994 60.8002C58.635 60.9451 58.4249 61.1479 58.2692 61.4087C58.117 61.6696 58.0409 61.9702 58.0409 62.3107V67.0325H55.7263ZM61.9871 67.0325V58.6865H64.3018V67.0325H61.9871ZM63.1498 57.6107C62.8057 57.6107 62.5105 57.4966 62.2642 57.2684C62.0215 57.0366 61.9001 56.7594 61.9001 56.4371C61.9001 56.1183 62.0215 55.8448 62.2642 55.6166C62.5105 55.3848 62.8057 55.2688 63.1498 55.2688C63.494 55.2688 63.7874 55.3848 64.0301 55.6166C64.2764 55.8448 64.3996 56.1183 64.3996 56.4371C64.3996 56.7594 64.2764 57.0366 64.0301 57.2684C63.7874 57.4966 63.494 57.6107 63.1498 57.6107ZM73.9368 58.6865L71.019 67.0325H68.4109L65.4931 58.6865H67.9382L69.6715 64.658H69.7584L71.4863 58.6865H73.9368ZM75.1213 67.0325V58.6865H77.436V67.0325H75.1213ZM76.2841 57.6107C75.94 57.6107 75.6447 57.4966 75.3984 57.2684C75.1557 57.0366 75.0344 56.7594 75.0344 56.4371C75.0344 56.1183 75.1557 55.8448 75.3984 55.6166C75.6447 55.3848 75.94 55.2688 76.2841 55.2688C76.6282 55.2688 76.9216 55.3848 77.1643 55.6166C77.4106 55.8448 77.5338 56.1183 77.5338 56.4371C77.5338 56.7594 77.4106 57.0366 77.1643 57.2684C76.9216 57.4966 76.6282 57.6107 76.2841 57.6107ZM86.2343 61.0664L84.1152 61.1968C84.079 61.0157 84.0011 60.8527 83.8815 60.7078C83.762 60.5593 83.6044 60.4416 83.4088 60.3546C83.2168 60.2641 82.9868 60.2188 82.7188 60.2188C82.3601 60.2188 82.0577 60.2949 81.8114 60.447C81.565 60.5955 81.4419 60.7948 81.4419 61.0447C81.4419 61.2439 81.5216 61.4124 81.681 61.55C81.8403 61.6877 82.1138 61.7982 82.5014 61.8815L84.0119 62.1857C84.8234 62.3524 85.4283 62.6204 85.8267 62.9899C86.2252 63.3594 86.4244 63.8448 86.4244 64.4461C86.4244 64.9931 86.2632 65.473 85.9409 65.886C85.6221 66.2989 85.1838 66.6213 84.6259 66.8532C84.0717 67.0814 83.4324 67.1955 82.7079 67.1955C81.6031 67.1955 80.7228 66.9655 80.0672 66.5054C79.4152 66.0418 79.033 65.4115 78.9207 64.6145L81.1974 64.495C81.2662 64.8319 81.4328 65.0891 81.6973 65.2666C81.9617 65.4404 82.3004 65.5274 82.7133 65.5274C83.119 65.5274 83.445 65.4495 83.6914 65.2937C83.9413 65.1344 84.0681 64.9297 84.0717 64.6797C84.0681 64.4696 83.9793 64.2976 83.8055 64.1636C83.6316 64.0259 83.3635 63.9209 83.0013 63.8484L81.556 63.5604C80.7409 63.3974 80.1342 63.1149 79.7357 62.7128C79.3409 62.3107 79.1435 61.7982 79.1435 61.1751C79.1435 60.639 79.2884 60.1771 79.5782 59.7896C79.8716 59.402 80.2827 59.1031 80.8116 58.893C81.3441 58.6829 81.9671 58.5779 82.6807 58.5779C83.7348 58.5779 84.5644 58.8006 85.1693 59.2462C85.7778 59.6917 86.1328 60.2985 86.2343 61.0664ZM91.6855 67.1955C90.827 67.1955 90.088 67.0216 89.4686 66.6739C88.8528 66.3225 88.3783 65.8262 88.045 65.1851C87.7117 64.5403 87.5451 63.7778 87.5451 62.8975C87.5451 62.039 87.7117 61.2856 88.045 60.6372C88.3783 59.9888 88.8473 59.4835 89.4523 59.1212C90.0608 58.759 90.7744 58.5779 91.5931 58.5779C92.1437 58.5779 92.6563 58.6666 93.1308 58.8441C93.6089 59.018 94.0255 59.2806 94.3805 59.632C94.7391 59.9833 95.018 60.4253 95.2173 60.9578C95.4165 61.4866 95.5161 62.1061 95.5161 62.816V63.4518H88.4688V62.0173H93.3373C93.3373 61.684 93.2648 61.3888 93.1199 61.1316C92.975 60.8745 92.774 60.6734 92.5168 60.5285C92.2632 60.38 91.968 60.3057 91.6311 60.3057C91.2798 60.3057 90.9682 60.3872 90.6966 60.5502C90.4285 60.7096 90.2184 60.9252 90.0663 61.1968C89.9141 61.4649 89.8363 61.7637 89.8326 62.0934V63.4572C89.8326 63.8701 89.9087 64.2269 90.0608 64.5276C90.2166 64.8283 90.4358 65.0601 90.7183 65.2231C91.0008 65.3861 91.3359 65.4676 91.7235 65.4676C91.9807 65.4676 92.2161 65.4314 92.4299 65.3589C92.6436 65.2865 92.8265 65.1778 92.9787 65.0329C93.1308 64.888 93.2467 64.7105 93.3264 64.5004L95.4672 64.6417C95.3585 65.1561 95.1358 65.6053 94.7989 65.9892C94.4656 66.3696 94.0346 66.6666 93.5057 66.8803C92.9805 67.0904 92.3737 67.1955 91.6855 67.1955ZM100.524 67.0325V65.6523L104.611 60.5937V60.5339H100.666V58.6865H107.398V60.1916L103.562 65.1253V65.1851H107.539V67.0325H100.524ZM112.841 67.1955C111.997 67.1955 111.267 67.0162 110.651 66.6576C110.039 66.2953 109.566 65.7918 109.233 65.147C108.9 64.4986 108.733 63.747 108.733 62.8921C108.733 62.03 108.9 61.2765 109.233 60.6318C109.566 59.9833 110.039 59.4798 110.651 59.1212C111.267 58.759 111.997 58.5779 112.841 58.5779C113.685 58.5779 114.413 58.759 115.025 59.1212C115.641 59.4798 116.116 59.9833 116.449 60.6318C116.782 61.2765 116.949 62.03 116.949 62.8921C116.949 63.747 116.782 64.4986 116.449 65.147C116.116 65.7918 115.641 66.2953 115.025 66.6576C114.413 67.0162 113.685 67.1955 112.841 67.1955ZM112.852 65.4024C113.236 65.4024 113.556 65.2937 113.814 65.0764C114.071 64.8554 114.265 64.5548 114.395 64.1744C114.529 63.7941 114.596 63.3612 114.596 62.8758C114.596 62.3904 114.529 61.9575 114.395 61.5772C114.265 61.1968 114.071 60.8962 113.814 60.6752C113.556 60.4543 113.236 60.3438 112.852 60.3438C112.464 60.3438 112.138 60.4543 111.874 60.6752C111.613 60.8962 111.416 61.1968 111.282 61.5772C111.151 61.9575 111.086 62.3904 111.086 62.8758C111.086 63.3612 111.151 63.7941 111.282 64.1744C111.416 64.5548 111.613 64.8554 111.874 65.0764C112.138 65.2937 112.464 65.4024 112.852 65.4024ZM125.398 61.0664L123.279 61.1968C123.243 61.0157 123.165 60.8527 123.045 60.7078C122.926 60.5593 122.768 60.4416 122.572 60.3546C122.38 60.2641 122.15 60.2188 121.882 60.2188C121.524 60.2188 121.221 60.2949 120.975 60.447C120.729 60.5955 120.606 60.7948 120.606 61.0447C120.606 61.2439 120.685 61.4124 120.845 61.55C121.004 61.6877 121.277 61.7982 121.665 61.8815L123.176 62.1857C123.987 62.3524 124.592 62.6204 124.99 62.9899C125.389 63.3594 125.588 63.8448 125.588 64.4461C125.588 64.9931 125.427 65.473 125.105 65.886C124.786 66.2989 124.347 66.6213 123.79 66.8532C123.235 67.0814 122.596 67.1955 121.872 67.1955C120.767 67.1955 119.886 66.9655 119.231 66.5054C118.579 66.0418 118.197 65.4115 118.084 64.6145L120.361 64.495C120.43 64.8319 120.596 65.0891 120.861 65.2666C121.125 65.4404 121.464 65.5274 121.877 65.5274C122.283 65.5274 122.609 65.4495 122.855 65.2937C123.105 65.1344 123.232 64.9297 123.235 64.6797C123.232 64.4696 123.143 64.2976 122.969 64.1636C122.795 64.0259 122.527 63.9209 122.165 63.8484L120.72 63.5604C119.905 63.3974 119.298 63.1149 118.899 62.7128C118.505 62.3107 118.307 61.7982 118.307 61.1751C118.307 60.639 118.452 60.1771 118.742 59.7896C119.035 59.402 119.446 59.1031 119.975 58.893C120.508 58.6829 121.131 58.5779 121.844 58.5779C122.898 58.5779 123.728 58.8006 124.333 59.2462C124.941 59.6917 125.296 60.2985 125.398 61.0664ZM130.849 67.1955C129.991 67.1955 129.252 67.0216 128.632 66.6739C128.016 66.3225 127.542 65.8262 127.209 65.1851C126.875 64.5403 126.709 63.7778 126.709 62.8975C126.709 62.039 126.875 61.2856 127.209 60.6372C127.542 59.9888 128.011 59.4835 128.616 59.1212C129.224 58.759 129.938 58.5779 130.757 58.5779C131.307 58.5779 131.82 58.6666 132.294 58.8441C132.773 59.018 133.189 59.2806 133.544 59.632C133.903 59.9833 134.182 60.4253 134.381 60.9578C134.58 61.4866 134.68 62.1061 134.68 62.816V63.4518H127.632V62.0173H132.501C132.501 61.684 132.428 61.3888 132.284 61.1316C132.139 60.8745 131.938 60.6734 131.68 60.5285C131.427 60.38 131.132 60.3057 130.795 60.3057C130.443 60.3057 130.132 60.3872 129.86 60.5502C129.592 60.7096 129.382 60.9252 129.23 61.1968C129.078 61.4649 129 61.7637 128.996 62.0934V63.4572C128.996 63.8701 129.072 64.2269 129.224 64.5276C129.38 64.8283 129.599 65.0601 129.882 65.2231C130.164 65.3861 130.5 65.4676 130.887 65.4676C131.144 65.4676 131.38 65.4314 131.594 65.3589C131.807 65.2865 131.99 65.1778 132.142 65.0329C132.294 64.888 132.41 64.7105 132.49 64.5004L134.631 64.6417C134.522 65.1561 134.299 65.6053 133.963 65.9892C133.629 66.3696 133.198 66.6666 132.669 66.8803C132.144 67.0904 131.537 67.1955 130.849 67.1955ZM142.046 62.2075V67.0325H139.732V55.9046H141.981V60.159H142.079C142.267 59.6664 142.572 59.2806 142.992 59.0017C143.412 58.7191 143.939 58.5779 144.573 58.5779C145.152 58.5779 145.658 58.7047 146.089 58.9582C146.524 59.2082 146.86 59.5686 147.099 60.0395C147.342 60.5068 147.462 61.0664 147.458 61.7185V67.0325H145.143V62.1314C145.147 61.617 145.017 61.2168 144.752 60.9306C144.491 60.6444 144.126 60.5013 143.655 60.5013C143.339 60.5013 143.061 60.5684 142.818 60.7024C142.579 60.8364 142.39 61.032 142.253 61.2892C142.119 61.5428 142.05 61.8489 142.046 62.2075ZM151.66 67.19C151.127 67.19 150.653 67.0977 150.236 66.9129C149.819 66.7246 149.49 66.4475 149.247 66.0816C149.008 65.7121 148.888 65.2521 148.888 64.7015C148.888 64.2378 148.974 63.8484 149.144 63.5333C149.314 63.2181 149.546 62.9646 149.839 62.7726C150.133 62.5806 150.466 62.4357 150.839 62.3379C151.216 62.2401 151.611 62.1713 152.024 62.1314C152.509 62.0807 152.9 62.0336 153.197 61.9901C153.494 61.943 153.71 61.8742 153.844 61.7837C153.978 61.6931 154.045 61.5591 154.045 61.3816V61.349C154.045 61.0049 153.936 60.7386 153.719 60.5502C153.505 60.3619 153.201 60.2677 152.806 60.2677C152.39 60.2677 152.058 60.3601 151.812 60.5448C151.565 60.7259 151.402 60.9541 151.323 61.2294L149.182 61.0556C149.291 60.5484 149.504 60.1101 149.823 59.7407C150.142 59.3675 150.553 59.0814 151.056 58.8822C151.564 58.6793 152.15 58.5779 152.817 58.5779C153.281 58.5779 153.724 58.6322 154.148 58.7409C154.576 58.8495 154.954 59.018 155.284 59.2462C155.617 59.4744 155.88 59.7678 156.072 60.1264C156.264 60.4814 156.36 60.9071 156.36 61.4033V67.0325H154.164V65.8751H154.099C153.965 66.1359 153.786 66.366 153.561 66.5652C153.337 66.7608 153.067 66.9147 152.752 67.027C152.437 67.1357 152.073 67.19 151.66 67.19ZM152.322 65.5926C152.663 65.5926 152.964 65.5256 153.224 65.3915C153.485 65.2539 153.69 65.0691 153.838 64.8373C153.987 64.6055 154.061 64.3429 154.061 64.0495V63.1638C153.989 63.2109 153.889 63.2543 153.762 63.2942C153.639 63.3304 153.5 63.3648 153.344 63.3974C153.188 63.4264 153.032 63.4536 152.877 63.4789C152.721 63.5007 152.58 63.5206 152.453 63.5387C152.181 63.5785 151.944 63.6419 151.741 63.7289C151.538 63.8158 151.381 63.9335 151.268 64.0821C151.156 64.2269 151.1 64.4081 151.1 64.6254C151.1 64.9406 151.214 65.1814 151.442 65.3481C151.674 65.5111 151.968 65.5926 152.322 65.5926ZM162.644 58.6865V60.4253H157.493V58.6865H162.644ZM158.672 67.0325V58.0834C158.672 57.4785 158.789 56.9768 159.025 56.5783C159.264 56.1799 159.59 55.881 160.003 55.6818C160.416 55.4826 160.885 55.3829 161.41 55.3829C161.765 55.3829 162.089 55.4101 162.383 55.4645C162.68 55.5188 162.901 55.5677 163.046 55.6112L162.633 57.3499C162.542 57.3209 162.43 57.2937 162.296 57.2684C162.165 57.243 162.031 57.2304 161.894 57.2304C161.553 57.2304 161.316 57.31 161.182 57.4694C161.048 57.6252 160.981 57.8443 160.981 58.1269V67.0325H158.672ZM164.058 67.0325V58.6865H166.372V67.0325H164.058ZM165.22 57.6107C164.876 57.6107 164.581 57.4966 164.335 57.2684C164.092 57.0366 163.971 56.7594 163.971 56.4371C163.971 56.1183 164.092 55.8448 164.335 55.6166C164.581 55.3848 164.876 55.2688 165.22 55.2688C165.564 55.2688 165.858 55.3848 166.101 55.6166C166.347 55.8448 166.47 56.1183 166.47 56.4371C166.47 56.7594 166.347 57.0366 166.101 57.2684C165.858 57.4966 165.564 57.6107 165.22 57.6107ZM173.197 70.1622C172.903 70.1622 172.628 70.1386 172.371 70.0916C172.117 70.0481 171.907 69.9919 171.741 69.9231L172.262 68.1952C172.534 68.2786 172.778 68.3238 172.996 68.3311C173.217 68.3383 173.407 68.2876 173.566 68.1789C173.729 68.0703 173.862 67.8855 173.963 67.6247L174.099 67.2715L171.105 58.6865H173.539L175.267 64.8156H175.354L177.098 58.6865H179.549L176.305 67.9344C176.149 68.3836 175.937 68.7748 175.669 69.1081C175.405 69.445 175.07 69.704 174.664 69.8851C174.258 70.0698 173.769 70.1622 173.197 70.1622ZM182.889 67.19C182.356 67.19 181.882 67.0977 181.465 66.9129C181.049 66.7246 180.719 66.4475 180.476 66.0816C180.237 65.7121 180.118 65.2521 180.118 64.7015C180.118 64.2378 180.203 63.8484 180.373 63.5333C180.543 63.2181 180.775 62.9646 181.069 62.7726C181.362 62.5806 181.695 62.4357 182.068 62.3379C182.445 62.2401 182.84 62.1713 183.253 62.1314C183.738 62.0807 184.13 62.0336 184.427 61.9901C184.724 61.943 184.939 61.8742 185.073 61.7837C185.207 61.6931 185.274 61.5591 185.274 61.3816V61.349C185.274 61.0049 185.166 60.7386 184.948 60.5502C184.735 60.3619 184.43 60.2677 184.035 60.2677C183.619 60.2677 183.287 60.3601 183.041 60.5448C182.795 60.7259 182.632 60.9541 182.552 61.2294L180.411 61.0556C180.52 60.5484 180.734 60.1101 181.052 59.7407C181.371 59.3675 181.782 59.0814 182.286 58.8822C182.793 58.6793 183.38 58.5779 184.046 58.5779C184.51 58.5779 184.954 58.6322 185.377 58.7409C185.805 58.8495 186.183 59.018 186.513 59.2462C186.846 59.4744 187.109 59.7678 187.301 60.1264C187.493 60.4814 187.589 60.9071 187.589 61.4033V67.0325H185.394V65.8751H185.329C185.195 66.1359 185.015 66.366 184.791 66.5652C184.566 66.7608 184.296 66.9147 183.981 67.027C183.666 67.1357 183.302 67.19 182.889 67.19ZM183.552 65.5926C183.892 65.5926 184.193 65.5256 184.454 65.3915C184.715 65.2539 184.919 65.0691 185.068 64.8373C185.216 64.6055 185.291 64.3429 185.291 64.0495V63.1638C185.218 63.2109 185.118 63.2543 184.992 63.2942C184.869 63.3304 184.729 63.3648 184.573 63.3974C184.418 63.4264 184.262 63.4536 184.106 63.4789C183.95 63.5007 183.809 63.5206 183.682 63.5387C183.411 63.5785 183.173 63.6419 182.97 63.7289C182.768 63.8158 182.61 63.9335 182.498 64.0821C182.385 64.2269 182.329 64.4081 182.329 64.6254C182.329 64.9406 182.443 65.1814 182.672 65.3481C182.903 65.5111 183.197 65.5926 183.552 65.5926ZM191.031 67.0325L188.76 58.6865H191.102L192.395 64.294H192.471L193.818 58.6865H196.117L197.486 64.2614H197.557L198.828 58.6865H201.165L198.899 67.0325H196.448L195.014 61.7837H194.911L193.476 67.0325H191.031ZM205.994 67.1955C205.135 67.1955 204.396 67.0216 203.777 66.6739C203.161 66.3225 202.686 65.8262 202.353 65.1851C202.02 64.5403 201.853 63.7778 201.853 62.8975C201.853 62.039 202.02 61.2856 202.353 60.6372C202.686 59.9888 203.156 59.4835 203.761 59.1212C204.369 58.759 205.083 58.5779 205.901 58.5779C206.452 58.5779 206.965 58.6666 207.439 58.8441C207.917 59.018 208.334 59.2806 208.689 59.632C209.047 59.9833 209.326 60.4253 209.526 60.9578C209.725 61.4866 209.824 62.1061 209.824 62.816V63.4518H202.777V62.0173H207.646C207.646 61.684 207.573 61.3888 207.428 61.1316C207.283 60.8745 207.082 60.6734 206.825 60.5285C206.571 60.38 206.276 60.3057 205.939 60.3057C205.588 60.3057 205.276 60.3872 205.005 60.5502C204.737 60.7096 204.527 60.9252 204.375 61.1968C204.222 61.4649 204.144 61.7637 204.141 62.0934V63.4572C204.141 63.8701 204.217 64.2269 204.369 64.5276C204.525 64.8283 204.744 65.0601 205.027 65.2231C205.309 65.3861 205.644 65.4676 206.032 65.4676C206.289 65.4676 206.524 65.4314 206.738 65.3589C206.952 65.2865 207.135 65.1778 207.287 65.0329C207.439 64.888 207.555 64.7105 207.635 64.5004L209.775 64.6417C209.667 65.1561 209.444 65.6053 209.107 65.9892C208.774 66.3696 208.343 66.6666 207.814 66.8803C207.289 67.0904 206.682 67.1955 205.994 67.1955Z" fill="#F9F9F9"/>
<path d="M146 77.416C87.1224 73.6274 29.5291 87.9167 0.936768 113.407C38.1413 90.4695 97.1806 78.7667 156.487 82.574C178.106 83.9974 198.966 87.4408 217.934 92.7173C197.306 84.4577 172.405 79.1611 146 77.416Z" fill="#F9F9F9"/>
</svg>
